<svg width="512" height="512" viewBox="0 0 512 512" fill="none" xmlns="http://www.w3.org/2000/svg">
<rect width="512" height="512" fill="#15181C"/>
<path d="M217.222 292.392C187.23 262.988 138.603 262.988 108.611 292.392C78.6185 321.796 78.6185 369.47 108.611 398.874C138.603 428.278 187.23 428.278 217.222 398.874C247.215 369.47 247.215 321.796 217.222 292.392Z" fill="#00B473"/>
<path fill-rule="evenodd" clip-rule="evenodd" d="M100.125 266.317C107.998 260.311 116.56 255.587 125.517 252.149C126.688 221.634 139.154 191.459 162.916 168.163C186.677 144.868 217.457 132.646 248.581 131.498C252.089 122.716 256.906 114.322 263.033 106.603C220.586 104.011 177.251 118.615 144.814 150.417C112.377 182.217 97.4807 224.703 100.125 266.317ZM258.27 382.299C254.762 391.08 249.945 399.474 243.818 407.194C286.265 409.786 329.6 395.181 362.037 363.38C394.474 331.579 409.371 289.094 406.727 247.48C398.853 253.486 390.291 258.209 381.334 261.647C380.163 292.162 367.697 322.338 343.935 345.633C320.174 368.928 289.395 381.151 258.27 382.299ZM289.629 221.404C259.637 192 259.637 144.327 289.629 114.922C319.622 85.5181 368.249 85.5181 398.241 114.922C428.234 144.327 428.234 192 398.241 221.404C368.249 250.809 319.622 250.809 289.629 221.404ZM307.731 132.669C287.737 152.272 287.737 184.054 307.731 203.658C327.726 223.26 360.145 223.26 380.139 203.658C400.134 184.054 400.134 152.272 380.139 132.669C360.145 113.067 327.726 113.067 307.731 132.669Z" fill="#00B473"/>
</svg>
