<svg width="643" height="390" viewBox="0 0 643 390" fill="none" xmlns="http://www.w3.org/2000/svg">
<rect x="514" y="59.9868" width="40" height="40" rx="4" transform="rotate(-18.9455 514 59.9868)" fill="#F0CA43"/>
<path d="M343.45 232.95L381.4 195L343.45 157.05L355 145.5L404.5 195L355 244.5L343.45 232.95ZM300.55 232.95L262.6 195L300.55 157.05L289 145.5L239.5 195L289 244.5L300.55 232.95Z" fill="#00B473"/>
<g opacity="0.5" clip-path="url(#clip0_1307_1213)">
<path d="M514.302 184.556L520.576 186.563L522.583 180.288L516.308 178.281L514.302 184.556ZM517.693 206.39L523.968 208.397L525.975 202.122L519.7 200.115L517.693 206.39ZM508.281 203.38L514.556 205.387L516.563 199.112L510.288 197.105L508.281 203.38ZM511.291 193.968L517.566 195.975L519.573 189.7L513.298 187.693L511.291 193.968ZM520.703 196.978L526.978 198.985L528.985 192.71L522.71 190.703L520.703 196.978ZM535.132 184.302L533.126 190.576L539.4 192.583L541.407 186.308L535.132 184.302ZM523.714 187.566L529.988 189.573L531.995 183.298L525.72 181.291L523.714 187.566ZM530.115 199.988L536.39 201.995L538.397 195.72L532.122 193.714L530.115 199.988ZM527.105 209.4L533.38 211.407L535.387 205.132L529.112 203.126L527.105 209.4Z" fill="white"/>
</g>
<g opacity="0.5">
<path d="M94.0735 284.56L123.557 281.473L123.9 284.749L94.4165 287.836L94.0735 284.56ZM94.931 292.75L124.415 289.663L124.758 292.939L95.2739 296.026L94.931 292.75ZM95.7884 300.939L125.272 297.853L125.615 301.129L96.1314 304.215L95.7884 300.939Z" fill="white"/>
</g>
<path d="M212.587 131.83L322 68.6603L431.413 131.83V258.17L322 321.34L212.587 258.17V131.83Z" fill="#00B473" fill-opacity="0.14" stroke="#00B473" stroke-width="15"/>
<path d="M98.0081 49.7544L129.087 84.1248L82.3622 93.3715L98.0081 49.7544Z" fill="#FFAC5F"/>
<path d="M92.7432 71.7201C92.8707 71.3645 93.3313 71.2734 93.5847 71.5536L96.1807 69.2061L93.5847 71.5536L115.451 95.7357C115.712 96.0239 115.559 96.4862 115.178 96.5616L82.3028 103.067C81.9217 103.143 81.6039 102.774 81.7351 102.408L92.7432 71.7201Z" stroke="white" stroke-width="7"/>
<path d="M565.758 271.844L564.35 318.161L524.253 292.451L565.758 271.844Z" fill="#A55FFF"/>
<path d="M552.382 290.423C552.72 290.255 553.115 290.508 553.104 290.886L556.602 290.992L553.104 290.886L552.114 323.474C552.102 323.862 551.671 324.089 551.344 323.879L523.133 305.791C522.806 305.581 522.832 305.095 523.18 304.922L552.382 290.423Z" stroke="white" stroke-width="7"/>
<mask id="path-10-inside-1_1307_1213" fill="white">
<rect x="504.59" y="74.5769" width="40" height="40" rx="4" transform="rotate(-18.9455 504.59 74.5769)"/>
</mask>
<rect x="504.59" y="74.5769" width="40" height="40" rx="4" transform="rotate(-18.9455 504.59 74.5769)" stroke="white" stroke-width="10" mask="url(#path-10-inside-1_1307_1213)"/>
<rect x="108.94" y="167" width="40" height="40" rx="4" transform="rotate(14.54 108.94 167)" fill="#6643F0"/>
<mask id="path-12-inside-2_1307_1213" fill="white">
<rect x="93.0422" y="173.977" width="40" height="40" rx="4" transform="rotate(14.54 93.0422 173.977)"/>
</mask>
<rect x="93.0422" y="173.977" width="40" height="40" rx="4" transform="rotate(14.54 93.0422 173.977)" stroke="white" stroke-width="10" mask="url(#path-12-inside-2_1307_1213)"/>
<defs>
<clipPath id="clip0_1307_1213">
<rect width="39.5264" height="39.5264" fill="white" transform="translate(512.041 170) rotate(17.7352)"/>
</clipPath>
</defs>
</svg>
