<svg width="60" height="60" viewBox="0 0 60 60" fill="none" xmlns="http://www.w3.org/2000/svg">
<rect width="60" height="60" fill="#4E617A"/>
<g opacity="0.9">
<path d="M30 14C32.1217 14 34.1566 14.8429 35.6569 16.3431C37.1571 17.8434 38 19.8783 38 22C38 24.1217 37.1571 26.1566 35.6569 27.6569C34.1566 29.1571 32.1217 30 30 30C27.8783 30 25.8434 29.1571 24.3431 27.6569C22.8429 26.1566 22 24.1217 22 22C22 19.8783 22.8429 17.8434 24.3431 16.3431C25.8434 14.8429 27.8783 14 30 14V14ZM30 18C28.9391 18 27.9217 18.4214 27.1716 19.1716C26.4214 19.9217 26 20.9391 26 22C26 23.0609 26.4214 24.0783 27.1716 24.8284C27.9217 25.5786 28.9391 26 30 26C31.0609 26 32.0783 25.5786 32.8284 24.8284C33.5786 24.0783 34 23.0609 34 22C34 20.9391 33.5786 19.9217 32.8284 19.1716C32.0783 18.4214 31.0609 18 30 18V18ZM30 32C35.34 32 46 34.66 46 40V46H14V40C14 34.66 24.66 32 30 32ZM30 35.8C24.06 35.8 17.8 38.72 17.8 40V42.2H42.2V40C42.2 38.72 35.94 35.8 30 35.8Z" fill="white"/>
</g>
</svg>
